<svg width="1024" height="1024" viewBox="0 0 1024 1024" fill="none" xmlns="http://www.w3.org/2000/svg">
<path fill-rule="evenodd" clip-rule="evenodd" d="M314.955 229.029C280.984 233.787 252.251 255.087 240.732 284.05C231.609 306.99 235.555 334.166 251.043 355.059C266.748 376.243 296.042 390.798 324 391.308C339.326 391.588 345.682 390.472 349.287 386.867C351.751 384.403 352.129 383.394 351.593 380.713C351.24 378.95 350.049 376.605 348.946 375.503C347.113 373.673 345.584 373.496 331.22 373.458C308.982 373.399 297.618 370.182 281.183 359.293C263.176 347.365 253.486 329.736 253.817 309.511C254.064 294.461 258.999 282.371 269.469 271.165C284.107 255.499 303.078 247.303 327 246.312C350.609 245.333 369.585 251.652 386.785 266.218C391.495 270.207 396.905 270.09 400.411 265.923C401.835 264.231 403 261.772 403 260.458C403 252.568 377.818 236.916 356.206 231.373C345.229 228.558 326.088 227.47 314.955 229.029ZM676.454 229.448C665.75 231.112 651.263 236.053 641.817 241.263C632.356 246.48 622.305 254.237 620.841 257.45C618.423 262.756 622.804 269 628.943 269C631.712 269 634.14 267.774 639.799 263.516C654.753 252.267 669.518 247.203 690.032 246.289C703.999 245.666 714.06 247.158 725.863 251.601C744.944 258.782 762.353 275.811 767.656 292.48C770.117 300.213 770.538 315.193 768.514 323C763.691 341.61 749.692 357.321 729.84 366.406C717.267 372.159 710.475 373.437 693.278 373.282L678.056 373.144L675.528 376.149C674.138 377.801 673 380.219 673 381.521C673 385.01 676.942 388.971 681.5 390.062C688.09 391.64 707.672 391.315 716.485 389.482C745.611 383.426 771.64 363.03 782.098 338.071C791.61 315.369 789.129 289.435 775.493 269.02C755.602 239.241 715.791 223.334 676.454 229.448ZM324.5 292.573C322.85 293.431 320.6 294.971 319.5 295.995C317.897 297.487 314.76 298.075 303.713 298.953C296.13 299.555 286.477 300.708 282.263 301.514C273.639 303.164 265.5 306.772 265.5 308.944C265.5 313.05 280.228 317.326 300.835 319.202L314.17 320.416L316.835 324.152C318.301 326.207 321.3 328.918 323.5 330.178C331.731 334.89 346.061 331.86 349.956 324.583L351.338 322L367.919 321.989C377.039 321.983 390.575 321.317 398 320.508C415.821 318.567 439.824 314.391 441.592 312.924C444.507 310.504 442.483 306.378 437.5 304.584C436.4 304.188 427.625 302.679 418 301.231C402.854 298.953 397.035 298.581 374.733 298.47L348.966 298.342L346.233 295.793C344.73 294.391 342.517 292.739 341.316 292.122C338.119 290.48 328.003 290.751 324.5 292.573ZM682.007 292.593C680.086 293.426 677.528 295.034 676.322 296.167C674.238 298.125 672.868 298.235 648.315 298.408C622.893 298.588 603.088 300.442 587.734 304.078C579.537 306.02 578.13 311.574 585.242 313.909C590.361 315.59 616.334 319.825 629 321.045C635.954 321.715 646.885 321.885 656.65 321.474C672.329 320.816 672.819 320.856 673.448 322.836C674.463 326.033 680.553 330.802 685.227 332.061C693.886 334.393 704.823 330.457 708.463 323.699L710.32 320.251L719.793 319.555C743.232 317.835 760.324 312.57 757.469 307.95C755.203 304.283 740.412 300.71 720.127 298.928C709.17 297.966 706.399 297.399 704.789 295.789C700.082 291.082 689.058 289.535 682.007 292.593ZM357.952 336.566C354.722 340.023 348.517 343.568 343.282 344.948L339.064 346.06L371.782 367.898C407.972 392.054 430.482 408.464 436.364 414.979C439.863 418.854 440.177 419.649 439.683 423.379C439.222 426.864 438.084 428.503 432.307 434C417.894 447.715 377.335 475.735 357.134 485.932L350.896 489.081L355.367 493.291C357.826 495.606 361.043 499.637 362.514 502.25L365.19 507H358.618C352.683 507 351.885 506.754 350.381 504.459C348.427 501.476 341.835 497.474 337.334 496.537C331.98 495.422 325.96 497.717 321.172 502.697L316.843 507.199L305.672 508.123C257.3 512.123 256.617 523.743 304.5 528.055C317.186 529.198 317.585 529.307 321 532.554C325.391 536.728 328.742 538.002 335.315 537.994C340.747 537.987 344.917 536.349 348.833 532.684C351.086 530.575 351.941 530.498 373.833 530.455C402.166 530.399 432.284 526.665 438.789 522.403C441.849 520.398 441.349 516.924 437.753 515.206C430.588 511.783 404.703 507.972 383.073 507.157L365.646 506.5L373.573 502.467C410.292 483.786 427.045 475.541 436.277 471.607C446.504 467.249 455.675 464.296 456.416 465.122C456.602 465.33 457.934 470.225 459.375 476C464.073 494.83 473.067 510.359 483.396 517.473C491.517 523.066 499.548 525.239 512 525.212C534.095 525.166 547.521 516.622 557.117 496.5C560.707 488.973 565.982 472.753 566.015 469.138C566.055 464.91 567.476 464.554 574.661 466.971C586.304 470.888 601.567 477.712 625.5 489.7C638.15 496.037 650.85 502.266 653.722 503.544L658.945 505.866L661.722 500.718C663.25 497.887 666.405 494.125 668.733 492.358L672.967 489.144L664.724 484.651C638.908 470.578 590.773 436.223 585.959 428.434C580.998 420.407 583.967 416.314 607.5 398.737C622.295 387.686 679.859 348.759 683.432 347.388C685.802 346.478 685.315 345.462 682.395 345.221C678.781 344.922 668.276 339.166 665.953 336.213C664.897 334.871 663.464 333.995 662.767 334.265C662.07 334.536 655.65 338.218 648.5 342.448C625 356.351 574.294 380.653 565.618 382.171C564.125 382.432 563.154 381.074 560.92 375.598C556.202 364.035 550.012 358.019 538.5 353.806C530.329 350.816 501.218 349.961 490.729 352.404C475.311 355.995 466.963 363.7 462.456 378.5C461.363 382.09 460.944 382.466 458.372 382.173C448.857 381.089 404.161 359.514 373.898 341.398C368.067 337.907 362.646 334.801 361.85 334.496C361.038 334.184 359.33 335.091 357.952 336.566ZM472.916 442.336C475.006 451.272 479.986 458.363 486 460.968C488.01 461.839 487.243 461.948 482.09 461.524C467.911 460.359 466.051 456.288 467.918 430.5C469.705 405.811 470.367 404.058 471.127 422C471.489 430.525 472.293 439.676 472.916 442.336ZM310.342 438.479C278.566 444.245 252.26 465.916 242.339 494.5C239.793 501.835 239.564 503.706 239.582 517C239.6 529.876 239.89 532.359 242.169 539.167C246.325 551.585 251.362 559.548 261.407 569.584C281.063 589.22 304.098 598.375 334 598.434C359.421 598.485 379.273 591.711 399.262 576.167C407.301 569.915 408.528 564.801 403.254 559.527C399.228 555.5 395.913 556.165 387.677 562.653C379.414 569.162 365.626 575.99 355.5 578.589C346.835 580.812 323.502 581.115 314.5 579.121C286.275 572.868 263.405 553.014 257.994 530.067C257.289 527.079 256.73 520.946 256.751 516.437C256.821 501.102 262.152 488.891 274 476.925C282.794 468.044 290.753 463.001 302.787 458.686C311.373 455.607 311.783 455.56 330.869 455.493C350.033 455.426 350.258 455.4 352.168 453.041C354.934 449.624 354.328 443.315 350.995 440.837C345.921 437.066 324.863 435.844 310.342 438.479ZM682 437.692C676.57 438.603 672.94 440.26 671.016 442.707C668.35 446.096 668.47 449.273 671.392 452.669L673.784 455.45L693.142 455.486C711.516 455.52 712.907 455.66 720.5 458.236C742.902 465.836 759.559 482.044 765.404 501.932C767.524 509.145 767.515 524.901 765.388 532.068C758.827 554.167 739.835 571.158 713.881 578.148C701.964 581.357 681.341 581.37 668.5 578.177C657.185 575.363 645.49 569.628 636.563 562.514C632.757 559.481 628.801 557 627.772 557C622.86 557 618 561.995 618 567.044C618 571.974 632.784 583.459 647.135 589.678C705.121 614.807 772.466 585.75 783.601 530.799C792.278 487.977 760.85 446.805 713.119 438.465C705.422 437.12 687.99 436.687 682 437.692ZM522.685 473.09C530.507 476.876 535.026 484.605 534.978 494.116C534.879 513.845 508.793 523.082 494.803 508.342C486.921 500.037 487.171 484.824 495.316 477.173C502.042 470.854 514.292 469.026 522.685 473.09ZM505.03 483.279C503.672 483.967 501.494 486.098 500.191 488.015C495.164 495.409 499.501 505.97 508.387 507.975C522.716 511.206 530.997 493.222 519.385 484.088C516.325 481.682 509.003 481.269 505.03 483.279ZM683.5 496.935C678.471 498.159 673.911 500.994 672.214 503.95L670.602 506.758L647.051 507.279C624.271 507.783 614.821 508.786 597.5 512.539C585.583 515.121 583.147 516.739 584.545 521.142C585.449 523.991 587.783 524.802 601.149 526.914C623.146 530.389 636.516 531.322 655.111 530.682L672.723 530.076L674.983 532.482C682.284 540.253 698.312 539.776 704.747 531.594C706.515 529.346 707.757 529.038 719.092 528.038C738.653 526.311 751.369 523.46 754.389 520.123C756.049 518.289 756.034 518.11 754.076 516.286C750.145 512.623 737.151 509.657 718.386 508.138L708.272 507.319L703.886 502.778C700.38 499.148 698.437 498.012 694.201 497.118C688.363 495.886 687.844 495.877 683.5 496.935ZM212.5 656.406C198.069 659.972 189 670.567 189 683.859C189 699.021 198.712 708.487 221 715.05C225.125 716.265 230.141 718.157 232.147 719.256C240.227 723.68 239.823 733.087 231.401 736.606C224.506 739.487 208.941 737.538 199.125 732.563C195.623 730.789 193.986 730.414 193.194 731.206C192.592 731.808 191.307 735.662 190.339 739.77L188.578 747.24L190.888 749.11C196.23 753.436 216.326 757.65 226.444 756.566C246.401 754.428 258.093 743.839 258.185 727.821C258.274 712.398 250.329 704.417 227.5 696.996C216.645 693.468 211.434 690.272 209.882 686.191C207.637 680.286 211.211 675.721 219.411 674.019C226.022 672.646 233.103 673.801 242.158 677.728C245.339 679.107 248.573 679.994 249.344 679.698C250.948 679.083 254.529 665.665 253.523 664.037C252.345 662.13 243.215 658.027 236.769 656.508C229.293 654.745 219.388 654.703 212.5 656.406ZM514.138 657.334C513.396 658.228 512.943 668.54 512.765 688.55L512.5 718.432L494.611 690.966C484.772 675.86 475.624 662.021 474.281 660.212L471.841 656.924L463.17 657.212L454.5 657.5V706V754.5H463.5H472.5L472.765 724.028L473.03 693.557L481.334 706.028C485.901 712.888 494.962 726.728 501.469 736.786L513.3 755.071L522.4 754.786L531.5 754.5L531.76 706.065C531.964 667.98 531.75 657.459 530.76 656.83C528.588 655.451 515.368 655.852 514.138 657.334ZM275.235 658.165C274.291 659.109 274.003 670.113 274.014 704.95C274.021 730.003 274.303 751.529 274.64 752.786C275.228 754.983 275.605 755.061 284.376 754.786L293.5 754.5L293.769 731.114L294.038 707.729L311.186 730.614C320.618 743.201 328.822 753.831 329.417 754.235C330.013 754.639 334.607 754.976 339.628 754.985C352.562 755.006 352.844 754.378 344.878 743.285C341.408 738.453 333.492 727.632 327.287 719.237L316.005 703.974L321.317 696.737C333.661 679.92 347 660.122 347 658.619C347 657.231 345.516 657 336.578 657H326.156L310.328 679.25L294.5 701.5L294 679.5L293.5 657.5L284.985 657.215C279.219 657.021 276.072 657.328 275.235 658.165ZM358.7 657.633C357.342 658.991 358.065 660.812 364.838 673.097C368.599 679.919 375.462 692.7 380.088 701.5L388.5 717.5L389 736L389.5 754.5H398.5H407.5L408 736.5L408.5 718.5L412.879 710.5C415.287 706.1 422.664 692.687 429.272 680.693C437.13 666.431 440.947 658.547 440.305 657.905C439.754 657.354 434.979 657.05 429.412 657.212L419.5 657.5L410.994 674C406.316 683.075 401.645 692.053 400.615 693.951L398.741 697.401L388.621 677.451L378.5 657.5L368.95 657.216C363.698 657.06 359.086 657.248 358.7 657.633ZM555.681 657.652C555.306 658.027 555 679.578 555 705.544C555 744.3 555.245 752.959 556.37 753.892C557.344 754.701 566.668 754.953 588.62 754.765L619.5 754.5L619.794 746.655C619.978 741.732 619.653 738.287 618.921 737.405C617.986 736.279 613.528 736 596.444 736H575.133L574.816 725.998L574.5 715.996L592.05 715.998C604.369 715.999 609.958 715.642 610.8 714.8C612.553 713.047 612.389 699.568 610.597 698.08C609.634 697.281 603.759 696.957 591.868 697.048L574.542 697.181L574.713 686.34L574.883 675.5L595.692 675L616.5 674.5V666V657.5L586.431 657.236C569.893 657.09 556.056 657.278 555.681 657.652ZM633.223 658.738C632.825 659.707 632.544 663.381 632.597 666.902C632.73 675.676 633.303 676 648.691 676H661L661.015 714.25C661.024 735.288 661.399 753.081 661.85 753.791C662.443 754.727 665.127 755.002 671.585 754.791L680.5 754.5L680.762 714.674L681.023 674.847L694.506 675.13C702.974 675.307 708.379 675.021 709.039 674.361C709.65 673.75 709.966 670.006 709.795 665.405L709.5 657.5L671.723 657.238C636.445 656.993 633.899 657.092 633.223 658.738ZM727 705.355C727 748.595 727.17 753.851 728.582 754.393C730.888 755.278 743.284 755.107 744.76 754.17C745.75 753.541 745.964 743.12 745.76 705.435L745.5 657.5L736.25 657.212L727 656.925V705.355ZM763.528 657.954C763.181 658.517 769.206 669.371 776.917 682.076L790.939 705.175L777.085 726.936C759.986 753.797 760.416 753.015 762.147 754.112C764.532 755.624 780.677 755.18 782.299 753.558C783.092 752.765 788.137 745.329 793.51 737.035C802.084 723.799 803.427 722.171 804.487 723.727C805.151 724.702 809.214 731.35 813.517 738.5C817.819 745.65 822.007 752.288 822.824 753.25C824.018 754.656 825.936 755 832.573 755C841.054 755 844 754.457 844 752.894C844 752.404 837.451 741.395 829.446 728.43L814.893 704.858L817.62 700.179C819.121 697.606 825.445 687.275 831.674 677.223C837.903 667.17 843 658.508 843 657.973C843 657.402 838.471 657 832.031 657H821.063L813.781 669.456C809.777 676.307 805.686 683.365 804.691 685.141L802.882 688.368L793.687 672.934L784.492 657.5L774.326 657.216C768.165 657.044 763.911 657.335 763.528 657.954Z" fill="black"/>
</svg>
