<svg width="2270" height="1669" viewBox="0 0 2270 1669" fill="none" xmlns="http://www.w3.org/2000/svg">
<path fill-rule="evenodd" clip-rule="evenodd" d="M836.037 11.1475C802.319 21.4052 779.775 44.8647 769.424 80.4719C755.42 128.652 789.324 183.287 839.083 192.723C855.365 195.811 878.994 192.666 892.621 185.596C899.337 182.114 901.638 183.905 953.544 233.051C1038.59 313.577 1037.24 312.078 1037.24 325.804C1037.24 332.276 1035.8 340.357 1034.05 343.763C1032.29 347.166 1001.08 380.047 964.688 416.831C889.731 492.593 884.302 500.428 884.253 532.873C884.205 564.445 890.493 573.467 961.257 643.367C1018.74 700.147 1023.07 705.128 1023.07 714.496C1023.07 736.117 1046.8 756.301 1067.62 752.393C1081.14 749.857 1095.72 735.19 1098.28 721.541C1102.33 699.917 1085 677.234 1064.42 677.234C1056.71 677.234 1048.12 669.697 995.807 617.02C962.915 583.903 933.915 553.652 931.365 549.798C925.995 541.685 925.318 526.582 929.923 517.656C931.677 514.253 962.889 481.372 999.281 444.589C1074.77 368.294 1079.67 361.153 1079.72 327.47C1079.76 297.034 1075.67 291.163 1012.37 230.812C981.633 201.501 950.948 172.193 944.182 165.682L931.881 153.843L939.798 138.553C946.477 125.651 947.735 119.72 947.843 100.593C947.953 80.9508 946.851 75.7143 939.588 61.3733C929.226 40.9061 906.931 20.0762 888.286 13.4455C874.024 8.37054 848.808 7.2626 836.037 11.1475ZM874.024 60.6224C889.419 67.0547 899.138 82.3591 899.402 100.585C899.654 117.935 894.432 127.354 878.586 138.139C860.576 150.397 833.586 144.594 820.749 125.699C796.584 90.1374 834.325 44.0344 874.024 60.6224ZM1072.66 154.013C1056.56 159.334 1031.29 172.437 1023.72 179.385L1017.28 185.293L1031.77 199.963L1046.25 214.632L1061.9 205.211C1089.5 188.589 1119.32 186.285 1147.43 198.6C1155.94 202.326 1175.23 219.251 1208.49 252.169L1257.11 300.293L1271.95 285.263L1286.79 270.236L1236.28 220.594C1172.06 157.473 1162.44 151.939 1115.22 150.933C1095.2 150.505 1079.93 151.61 1072.66 154.013ZM1401.36 237.78C1396.68 238.95 1389.03 242.028 1384.36 244.62C1379.68 247.21 1335.18 289.307 1285.45 338.167L1195.04 427.003L1186.62 422.801C1154.35 406.7 1107.43 424.164 1085.64 460.383C1077.33 474.203 1075.76 479.694 1074.65 498.989C1073.09 525.846 1077.56 540.033 1094.22 561.113C1131.77 608.613 1205.52 599.095 1235.01 542.944C1245.44 523.069 1245.68 490.108 1235.54 469.108L1228.77 455.084L1316.26 369.26C1364.38 322.058 1406.03 282.713 1408.81 281.829C1411.6 280.945 1417 281.885 1420.83 283.917C1430.93 289.273 1503.21 357.438 1504.26 362.595C1509.09 386.12 1520.08 396.678 1539.77 396.695C1577.69 396.732 1588.79 348.192 1554.63 331.658C1548.05 328.473 1540.42 325.866 1537.67 325.866C1534.93 325.866 1514.61 309.108 1492.52 288.627C1470.44 268.145 1447.9 248.494 1442.45 244.96C1431.19 237.661 1413.89 234.638 1401.36 237.78ZM782.178 416.944C700.377 499.765 628.486 574.043 622.416 582.002C595.448 617.383 585.092 655.166 592.04 692.819C595.528 711.731 609.54 741.756 619.044 750.684L625.224 756.491L640.098 741.433L654.971 726.372L645.088 711.688C624.116 680.524 628.644 641.372 657.428 604.977C662.359 598.743 711.23 548.376 766.029 493.049C820.831 437.723 887.345 370.478 913.839 343.616L962.014 294.773L948.018 280.568C940.322 272.753 933.323 266.36 932.467 266.36C931.609 266.36 863.979 334.123 782.178 416.944ZM1372.3 380.424L1357.51 395.394L1455.33 493.1C1509.14 546.84 1556.89 596.59 1561.46 603.654C1572.39 620.565 1579.55 648.884 1577.62 667.577C1574.22 700.47 1570.12 705.882 1479.59 796.969L1395.79 881.283L1410.7 896.145L1425.6 911.008L1508.77 827.416C1582.07 753.736 1593.12 741.461 1601.92 723.898C1615.28 697.259 1618.63 683.508 1618.56 655.713C1618.48 627.859 1609.57 598.95 1594.23 576.8C1588.77 568.919 1539.93 518.144 1485.69 463.962L1387.08 365.454L1372.3 380.424ZM1176.13 467.127C1212.13 486.257 1203.48 537.752 1163 545.349C1149.7 547.843 1129.77 538.659 1122.17 526.537C1117.59 519.243 1116.51 513.774 1117.38 502.142C1118.65 484.897 1124.96 474.812 1139.3 467.125C1151.72 460.466 1163.6 460.466 1176.13 467.127ZM1320.66 495.18C1309.26 500.904 1297.93 516.344 1297.93 526.146C1297.93 545.403 1315.28 563.856 1333.41 563.878C1340.45 563.887 1346.84 568.783 1369.62 591.653C1398.29 620.429 1403.24 629.729 1398.95 646.779C1398.03 650.459 1369.08 681.451 1334.62 715.65C1262.68 787.034 1257.68 794.195 1257.47 826.127C1257.26 858.974 1260.4 863.292 1342.47 943.317L1414.83 1013.87L1410.22 1027.41C1397.06 1066.03 1415.22 1110.66 1451.97 1130C1464.83 1136.77 1469.69 1137.67 1493.45 1137.68C1514.23 1137.69 1522.55 1136.51 1529.9 1132.5C1545.35 1124.07 1564.25 1104.97 1572.3 1089.64C1578.7 1077.45 1579.8 1071.83 1579.8 1051.27C1579.8 1030.69 1578.7 1025.1 1572.27 1012.84C1563.74 996.591 1547.63 980.902 1529.71 971.375C1511.29 961.588 1477.73 962.299 1457.18 972.914L1442.16 980.675L1377.02 917.658C1341.19 883 1309.38 850.598 1306.32 845.653C1300.1 835.577 1299.17 817.725 1304.41 808.81C1306.3 805.591 1334.93 776.436 1368.02 744.02C1439.77 673.732 1443.92 667.439 1441.88 632.134C1440.23 603.589 1432.56 591.03 1395.59 556.307C1372.97 535.06 1368.77 529.747 1368.77 522.383C1368.77 511.488 1359.4 499.246 1347.14 494.123C1335.11 489.099 1332.56 489.201 1320.66 495.18ZM776.548 663.168C766.939 667.424 742.949 689.926 679.224 754.45C632.71 801.551 591.269 845.843 587.132 852.879C580.495 864.168 579.611 868.665 579.623 891.172C579.634 922.566 582.181 927.837 612.77 959.774C625.119 972.673 634.459 984.466 633.524 985.982C630.197 991.361 642.909 1010.74 652.863 1015.46C666.136 1021.76 674.744 1021.3 686.161 1013.67C704.622 1001.34 709.742 979.383 698.252 961.843C693.052 953.909 677.839 946.428 666.907 946.428C658.7 946.428 647.278 936.516 628.284 912.915C619.548 902.059 618.375 888.424 624.98 874.502C627.338 869.538 666.598 828.224 712.227 782.69C791.733 703.352 795.635 699.903 805.927 699.903C816.176 699.903 820.605 703.737 902.666 783.631L988.664 867.361L984.291 877.826C977.53 894.009 980.344 927.99 989.763 943.926C1014.93 986.507 1061.72 1001.37 1104.41 980.355C1135.54 965.033 1152.15 937.749 1151.81 902.507C1151.48 867.931 1131.81 838.065 1099.93 823.718C1080.02 814.758 1051.35 815.416 1031.41 825.288L1015.99 832.919L998.987 816.716C989.636 807.805 952.019 770.936 915.395 734.785C868.397 688.396 845.053 667.362 836.054 663.29C819.177 655.656 793.632 655.605 776.548 663.168ZM722.978 825.727L707.81 841.088L810.894 942.699C1023.77 1152.53 1018.6 1147.8 1047.89 1159.25C1060.35 1164.12 1071.8 1165.89 1096.75 1166.8C1132.59 1168.12 1152.35 1163.62 1178.73 1148.16C1189.44 1141.89 1294.14 1043.94 1329.8 1006.84L1340.41 995.801L1325.55 981.165L1310.68 966.532L1239.65 1035.46C1200.58 1073.37 1163.43 1107.66 1157.1 1111.66C1122.85 1133.28 1077.39 1132.38 1043.57 1109.4C1038.29 1105.81 980.194 1049.6 914.468 984.48C848.743 919.364 782.181 853.55 766.556 838.226L738.149 810.366L722.978 825.727ZM1087.56 869.906C1115.83 887.137 1113.78 927.879 1083.98 941.058C1045.51 958.074 1011.25 919.231 1031.44 881.498C1040.23 865.072 1069.67 858.994 1087.56 869.906ZM1521.73 1021.46C1544.4 1043.18 1537.79 1078.7 1509.03 1089.68C1487.5 1097.9 1464.9 1089.87 1454.84 1070.42C1447.94 1057.08 1450.87 1036.23 1461.17 1025.34C1472.33 1013.54 1478.01 1011.51 1497 1012.52C1510.39 1013.23 1514.8 1014.82 1521.73 1021.46ZM83.0229 1327.59C48.2516 1335.15 22.1342 1355.54 13.0411 1382.22C7.59204 1398.22 7.30868 1433.65 12.5339 1446.15C17.9517 1459.12 32.7432 1475.27 46.5713 1483.31C52.9809 1487.04 74.9868 1494.76 95.4682 1500.48C115.952 1506.19 136.751 1513.32 141.687 1516.32C158.712 1526.67 163.359 1553.77 150.157 1565.72C142.073 1573.04 114.417 1574.75 102.649 1568.67C93.7566 1564.07 85.1453 1551.42 85.1453 1542.96C85.1453 1539.07 80.1185 1538.59 46.2341 1539.28L7.32568 1540.07L8.22394 1552.82C10.165 1580.4 33.633 1607.1 68.1436 1621C89.5884 1629.64 136.082 1631.85 161.166 1625.43C207.056 1613.67 232.649 1582.53 233.114 1537.89C233.57 1493.65 211.241 1469.89 153.152 1452.81C144.58 1450.3 128.471 1445.55 117.352 1442.26C94.9156 1435.63 85.9132 1428.13 85.0914 1415.39C84.0912 1399.84 85.0858 1396.6 93.4279 1388.25C109.554 1372.13 137.947 1379 147.865 1401.42L153.418 1413.97H192.59H231.762L229.331 1400.97C224.318 1374.13 205.174 1349.44 179.119 1336.2C155.677 1324.3 114.992 1320.65 83.0229 1327.59ZM306.167 1477.73V1629.33H344.52H382.873L382.066 1562.74C381.621 1526.11 381.896 1496.18 382.675 1496.22C383.454 1496.27 406.506 1525.91 433.898 1562.11L483.705 1627.91L528.377 1628.69C556.755 1629.19 572.694 1628.46 572.08 1626.69C571.547 1625.16 546.756 1592.93 516.986 1555.07C487.218 1517.21 461.172 1483.49 459.106 1480.15C455.607 1474.48 459.112 1469.33 510.222 1405.05C540.403 1367.1 566.965 1333.82 569.252 1331.09C573.179 1326.4 571.025 1326.14 529.754 1326.21L486.102 1326.29L441.444 1383.59C416.882 1415.11 393.618 1444.72 389.745 1449.39L382.703 1457.9L382.689 1392.01L382.675 1326.13H344.421H306.167V1477.73ZM609.364 1328.32C609.364 1329.61 610.464 1331.88 611.807 1333.36C613.15 1334.84 636.74 1380.21 664.229 1434.19L714.208 1532.33V1580.83V1629.33H751.045H787.882V1580.83V1532.32L840.304 1430.83C869.136 1375 892.726 1328.61 892.726 1327.73C892.726 1326.85 875.002 1326.13 853.339 1326.13H813.951L794.541 1366.51C783.864 1388.71 769.903 1417.72 763.516 1430.97L751.901 1455.06L723.182 1395.56C707.39 1362.83 693.353 1334.14 691.99 1331.8C690.012 1328.4 681.477 1327.39 649.44 1326.76C627.397 1326.33 609.364 1327.03 609.364 1328.32ZM949.398 1477.73V1629.33H986.198H1023L1023.74 1535.59L1024.49 1441.84L1086.55 1535.59L1148.61 1629.33H1185.02H1221.43V1477.73V1326.13H1184.59H1147.75L1147.71 1418.93L1147.67 1511.73L1126.26 1479.15C1114.49 1461.23 1087.02 1419.47 1065.23 1386.35L1025.6 1326.13H987.496H949.398V1477.73ZM1295.1 1477.73V1629.33H1388.4C1471.96 1629.33 1481.8 1628.85 1482.62 1624.76C1483.12 1622.25 1483.13 1608.86 1482.63 1595.01L1481.72 1569.82H1425.24H1368.77V1538.65V1507.48H1418.36H1467.95V1477.73V1447.98H1418.36H1368.77V1415.39V1382.8H1427.17C1479.25 1382.8 1485.37 1382.32 1483.84 1378.32C1482.89 1375.86 1482.12 1363.11 1482.12 1349.99V1326.13H1388.61H1295.1V1477.73ZM1547.29 1354.47V1382.8H1588.38H1629.47V1506.07V1629.33H1667.72H1705.97V1506.07V1382.8H1745.64H1785.32V1354.47V1326.13H1666.3H1547.29V1354.47ZM1847.09 1328.26C1846.59 1329.43 1846.19 1397.33 1846.21 1479.15L1846.24 1627.91L1883.78 1628.7L1921.33 1629.49V1477.81V1326.13H1884.66C1864.49 1326.13 1847.58 1327.09 1847.09 1328.26ZM1970.42 1330.12C1971.27 1332.31 1993.17 1366.16 2019.11 1405.33L2066.26 1476.56L2048.53 1504.07C2038.78 1519.19 2016.69 1552.61 1999.44 1578.32C1982.19 1604.04 1967.65 1626.07 1967.11 1627.28C1966.58 1628.49 1986.31 1629.13 2010.95 1628.69L2055.76 1627.91L2082.35 1583.19C2101.33 1551.28 2109.88 1539.25 2112.19 1541.24C2113.97 1542.76 2127.55 1563.14 2142.35 1586.53L2169.27 1629.05L2212.79 1629.19C2250.53 1629.31 2256.08 1628.76 2254.66 1625.04C2253.75 1622.68 2231.19 1588.37 2204.52 1548.81L2156.03 1476.87L2203.03 1403.03C2228.88 1362.41 2250.03 1328.49 2250.03 1327.65C2250.03 1326.82 2231.69 1326.13 2209.27 1326.13H2168.51L2143.82 1367.06C2130.23 1389.57 2117.65 1409.92 2115.86 1412.28C2113.17 1415.82 2107.61 1408.62 2084.26 1371.39L2055.93 1326.21L2012.41 1326.18C1976.16 1326.14 1969.15 1326.8 1970.42 1330.12Z" fill="black"/>
</svg>
