<svg width="656" height="529" viewBox="0 0 656 529" fill="none" xmlns="http://www.w3.org/2000/svg">
<path fill-rule="evenodd" clip-rule="evenodd" d="M126.955 1.02899C92.984 5.78699 64.251 27.087 52.732 56.05C43.609 78.99 47.555 106.166 63.043 127.059C78.748 148.243 108.042 162.798 136 163.308C151.326 163.588 157.682 162.472 161.287 158.867C163.751 156.403 164.129 155.394 163.593 152.713C163.24 150.95 162.049 148.605 160.946 147.503C159.113 145.673 157.584 145.496 143.22 145.458C120.982 145.399 109.618 142.182 93.183 131.293C75.176 119.365 65.486 101.736 65.817 81.511C66.064 66.461 70.999 54.371 81.469 43.165C96.107 27.499 115.078 19.303 139 18.312C162.609 17.333 181.585 23.652 198.785 38.218C203.495 42.207 208.905 42.09 212.411 37.923C213.835 36.231 215 33.772 215 32.458C215 24.568 189.818 8.91599 168.206 3.37299C157.229 0.557988 138.088 -0.530006 126.955 1.02899ZM488.454 1.44798C477.75 3.11198 463.263 8.05299 453.817 13.263C444.356 18.48 434.305 26.237 432.841 29.45C430.423 34.756 434.804 41 440.943 41C443.712 41 446.14 39.774 451.799 35.516C466.753 24.267 481.518 19.203 502.032 18.289C515.999 17.666 526.06 19.158 537.863 23.601C556.944 30.782 574.353 47.811 579.656 64.48C582.117 72.213 582.538 87.193 580.514 95C575.691 113.61 561.692 129.321 541.84 138.406C529.267 144.159 522.475 145.437 505.278 145.282L490.056 145.144L487.528 148.149C486.138 149.801 485 152.219 485 153.521C485 157.01 488.942 160.971 493.5 162.062C500.09 163.64 519.672 163.315 528.485 161.482C557.611 155.426 583.64 135.03 594.098 110.071C603.61 87.369 601.129 61.435 587.493 41.02C567.602 11.241 527.791 -4.66601 488.454 1.44798ZM136.5 64.573C134.85 65.431 132.6 66.971 131.5 67.995C129.897 69.487 126.76 70.075 115.713 70.953C108.13 71.555 98.477 72.708 94.263 73.514C85.639 75.164 77.5 78.772 77.5 80.944C77.5 85.05 92.228 89.326 112.835 91.202L126.17 92.416L128.835 96.152C130.301 98.207 133.3 100.918 135.5 102.178C143.731 106.89 158.061 103.86 161.956 96.583L163.338 94L179.919 93.989C189.039 93.983 202.575 93.317 210 92.508C227.821 90.567 251.824 86.391 253.592 84.924C256.507 82.504 254.483 78.378 249.5 76.584C248.4 76.188 239.625 74.679 230 73.231C214.854 70.953 209.035 70.581 186.733 70.47L160.966 70.342L158.233 67.793C156.73 66.391 154.517 64.739 153.316 64.122C150.119 62.48 140.003 62.751 136.5 64.573ZM494.007 64.593C492.086 65.426 489.528 67.034 488.322 68.167C486.238 70.125 484.868 70.235 460.315 70.408C434.893 70.588 415.088 72.442 399.734 76.078C391.537 78.02 390.13 83.574 397.242 85.909C402.361 87.59 428.334 91.825 441 93.045C447.954 93.715 458.885 93.885 468.65 93.474C484.329 92.816 484.819 92.856 485.448 94.836C486.463 98.033 492.553 102.802 497.227 104.061C505.886 106.393 516.823 102.457 520.463 95.699L522.32 92.251L531.793 91.555C555.232 89.835 572.324 84.57 569.469 79.95C567.203 76.283 552.412 72.71 532.127 70.928C521.17 69.966 518.399 69.399 516.789 67.789C512.082 63.082 501.058 61.535 494.007 64.593ZM169.952 108.566C166.722 112.023 160.517 115.568 155.282 116.948L151.064 118.06L183.782 139.898C219.972 164.054 242.482 180.464 248.364 186.979C251.863 190.854 252.177 191.649 251.683 195.379C251.222 198.864 250.084 200.503 244.307 206C229.894 219.715 189.335 247.735 169.134 257.932L162.896 261.081L167.367 265.291C169.826 267.606 173.043 271.637 174.514 274.25L177.19 279H170.618C164.683 279 163.885 278.754 162.381 276.459C160.427 273.476 153.835 269.474 149.334 268.537C143.98 267.422 137.96 269.717 133.172 274.697L128.843 279.199L117.672 280.123C69.3 284.123 68.617 295.743 116.5 300.055C129.186 301.198 129.585 301.307 133 304.554C137.391 308.728 140.742 310.002 147.315 309.994C152.747 309.987 156.917 308.349 160.833 304.684C163.086 302.575 163.941 302.498 185.833 302.455C214.166 302.399 244.284 298.665 250.789 294.403C253.849 292.398 253.349 288.924 249.753 287.206C242.588 283.783 216.703 279.972 195.073 279.157L177.646 278.5L185.573 274.467C222.292 255.786 239.045 247.541 248.277 243.607C258.504 239.249 267.675 236.296 268.416 237.122C268.602 237.33 269.934 242.225 271.375 248C276.073 266.83 285.067 282.359 295.396 289.473C303.517 295.066 311.548 297.239 324 297.212C346.095 297.166 359.521 288.622 369.117 268.5C372.707 260.973 377.982 244.753 378.015 241.138C378.055 236.91 379.476 236.554 386.661 238.971C398.304 242.888 413.567 249.712 437.5 261.7C450.15 268.037 462.85 274.266 465.722 275.544L470.945 277.866L473.722 272.718C475.25 269.887 478.405 266.125 480.733 264.358L484.967 261.144L476.724 256.651C450.908 242.578 402.773 208.223 397.959 200.434C392.998 192.407 395.967 188.314 419.5 170.737C434.295 159.686 491.859 120.759 495.432 119.388C497.802 118.478 497.315 117.462 494.395 117.221C490.781 116.922 480.276 111.166 477.953 108.213C476.897 106.871 475.464 105.995 474.767 106.265C474.07 106.536 467.65 110.218 460.5 114.448C437 128.351 386.294 152.653 377.618 154.171C376.125 154.432 375.154 153.074 372.92 147.598C368.202 136.035 362.012 130.019 350.5 125.806C342.329 122.816 313.218 121.961 302.729 124.404C287.311 127.995 278.963 135.7 274.456 150.5C273.363 154.09 272.944 154.466 270.372 154.173C260.857 153.089 216.161 131.514 185.898 113.398C180.067 109.907 174.646 106.801 173.85 106.496C173.038 106.184 171.33 107.091 169.952 108.566ZM284.916 214.336C287.006 223.272 291.986 230.363 298 232.968C300.01 233.839 299.243 233.948 294.09 233.524C279.911 232.359 278.051 228.288 279.918 202.5C281.705 177.811 282.367 176.058 283.127 194C283.489 202.525 284.293 211.676 284.916 214.336ZM122.342 210.479C90.566 216.245 64.26 237.916 54.339 266.5C51.793 273.835 51.564 275.706 51.582 289C51.6 301.876 51.89 304.359 54.169 311.167C58.325 323.585 63.362 331.548 73.407 341.584C93.063 361.22 116.098 370.375 146 370.434C171.421 370.485 191.273 363.711 211.262 348.167C219.301 341.915 220.528 336.801 215.254 331.527C211.228 327.5 207.913 328.165 199.677 334.653C191.414 341.162 177.626 347.99 167.5 350.589C158.835 352.812 135.502 353.115 126.5 351.121C98.275 344.868 75.405 325.014 69.994 302.067C69.289 299.079 68.73 292.946 68.751 288.437C68.821 273.102 74.152 260.891 86 248.925C94.794 240.044 102.753 235.001 114.787 230.686C123.373 227.607 123.783 227.56 142.869 227.493C162.033 227.426 162.258 227.4 164.168 225.041C166.934 221.624 166.328 215.315 162.995 212.837C157.921 209.066 136.863 207.844 122.342 210.479ZM494 209.692C488.57 210.603 484.94 212.26 483.016 214.707C480.35 218.096 480.47 221.273 483.392 224.669L485.784 227.45L505.142 227.486C523.516 227.52 524.907 227.66 532.5 230.236C554.902 237.836 571.559 254.044 577.404 273.932C579.524 281.145 579.515 296.901 577.388 304.068C570.827 326.167 551.835 343.158 525.881 350.148C513.964 353.357 493.341 353.37 480.5 350.177C469.185 347.363 457.49 341.628 448.563 334.514C444.757 331.481 440.801 329 439.772 329C434.86 329 430 333.995 430 339.044C430 343.974 444.784 355.459 459.135 361.678C517.121 386.807 584.466 357.75 595.601 302.799C604.278 259.977 572.85 218.805 525.119 210.465C517.422 209.12 499.99 208.687 494 209.692ZM334.685 245.09C342.507 248.876 347.026 256.605 346.978 266.116C346.879 285.845 320.793 295.082 306.803 280.342C298.921 272.037 299.171 256.824 307.316 249.173C314.042 242.854 326.292 241.026 334.685 245.09ZM317.03 255.279C315.672 255.967 313.494 258.098 312.191 260.015C307.164 267.409 311.501 277.97 320.387 279.975C334.716 283.206 342.997 265.222 331.385 256.088C328.325 253.682 321.003 253.269 317.03 255.279ZM495.5 268.935C490.471 270.159 485.911 272.994 484.214 275.95L482.602 278.758L459.051 279.279C436.271 279.783 426.821 280.786 409.5 284.539C397.583 287.121 395.147 288.739 396.545 293.142C397.449 295.991 399.783 296.802 413.149 298.914C435.146 302.389 448.516 303.322 467.111 302.682L484.723 302.076L486.983 304.482C494.284 312.253 510.312 311.776 516.747 303.594C518.515 301.346 519.757 301.038 531.092 300.038C550.653 298.311 563.369 295.46 566.389 292.123C568.049 290.289 568.034 290.11 566.076 288.286C562.145 284.623 549.151 281.657 530.386 280.138L520.272 279.319L515.886 274.778C512.38 271.148 510.437 270.012 506.201 269.118C500.363 267.886 499.844 267.877 495.5 268.935ZM24.5 428.406C10.069 431.972 1 442.567 1 455.859C1 471.021 10.712 480.487 33 487.05C37.125 488.265 42.141 490.157 44.147 491.256C52.227 495.68 51.823 505.087 43.401 508.606C36.506 511.487 20.941 509.538 11.125 504.563C7.623 502.789 5.986 502.414 5.194 503.206C4.592 503.808 3.307 507.662 2.339 511.77L0.578003 519.24L2.888 521.11C8.23 525.436 28.326 529.65 38.444 528.566C58.401 526.428 70.093 515.839 70.185 499.821C70.274 484.398 62.329 476.417 39.5 468.996C28.645 465.468 23.434 462.272 21.882 458.191C19.637 452.286 23.211 447.721 31.411 446.019C38.022 444.646 45.103 445.801 54.158 449.728C57.339 451.107 60.573 451.994 61.344 451.698C62.948 451.083 66.529 437.665 65.523 436.037C64.345 434.13 55.215 430.027 48.769 428.508C41.293 426.745 31.388 426.703 24.5 428.406ZM326.138 429.334C325.396 430.228 324.943 440.54 324.765 460.55L324.5 490.432L306.611 462.966C296.772 447.86 287.624 434.021 286.281 432.212L283.841 428.924L275.17 429.212L266.5 429.5V478V526.5H275.5H284.5L284.765 496.028L285.03 465.557L293.334 478.028C297.901 484.888 306.962 498.728 313.469 508.786L325.3 527.071L334.4 526.786L343.5 526.5L343.76 478.065C343.964 439.98 343.75 429.459 342.76 428.83C340.588 427.451 327.368 427.852 326.138 429.334ZM87.235 430.165C86.291 431.109 86.003 442.113 86.014 476.95C86.021 502.003 86.303 523.529 86.64 524.786C87.228 526.983 87.605 527.061 96.376 526.786L105.5 526.5L105.769 503.114L106.038 479.729L123.186 502.614C132.618 515.201 140.822 525.831 141.417 526.235C142.013 526.639 146.607 526.976 151.628 526.985C164.562 527.006 164.844 526.378 156.878 515.285C153.408 510.453 145.492 499.632 139.287 491.237L128.005 475.974L133.317 468.737C145.661 451.92 159 432.122 159 430.619C159 429.231 157.516 429 148.578 429H138.156L122.328 451.25L106.5 473.5L106 451.5L105.5 429.5L96.985 429.215C91.219 429.021 88.072 429.328 87.235 430.165ZM170.7 429.633C169.342 430.991 170.065 432.812 176.838 445.097C180.599 451.919 187.462 464.7 192.088 473.5L200.5 489.5L201 508L201.5 526.5H210.5H219.5L220 508.5L220.5 490.5L224.879 482.5C227.287 478.1 234.664 464.687 241.272 452.693C249.13 438.431 252.947 430.547 252.305 429.905C251.754 429.354 246.979 429.05 241.412 429.212L231.5 429.5L222.994 446C218.316 455.075 213.645 464.053 212.615 465.951L210.741 469.401L200.621 449.451L190.5 429.5L180.95 429.216C175.698 429.06 171.086 429.248 170.7 429.633ZM367.681 429.652C367.306 430.027 367 451.578 367 477.544C367 516.3 367.245 524.959 368.37 525.892C369.344 526.701 378.668 526.953 400.62 526.765L431.5 526.5L431.794 518.655C431.978 513.732 431.653 510.287 430.921 509.405C429.986 508.279 425.528 508 408.444 508H387.133L386.816 497.998L386.5 487.996L404.05 487.998C416.369 487.999 421.958 487.642 422.8 486.8C424.553 485.047 424.389 471.568 422.597 470.08C421.634 469.281 415.759 468.957 403.868 469.048L386.542 469.181L386.713 458.34L386.883 447.5L407.692 447L428.5 446.5V438V429.5L398.431 429.236C381.893 429.09 368.056 429.278 367.681 429.652ZM445.223 430.738C444.825 431.707 444.544 435.381 444.597 438.902C444.73 447.676 445.303 448 460.691 448H473L473.015 486.25C473.024 507.288 473.399 525.081 473.85 525.791C474.443 526.727 477.127 527.002 483.585 526.791L492.5 526.5L492.762 486.674L493.023 446.847L506.506 447.13C514.974 447.307 520.379 447.021 521.039 446.361C521.65 445.75 521.966 442.006 521.795 437.405L521.5 429.5L483.723 429.238C448.445 428.993 445.899 429.092 445.223 430.738ZM539 477.355C539 520.595 539.17 525.851 540.582 526.393C542.888 527.278 555.284 527.107 556.76 526.17C557.75 525.541 557.964 515.12 557.76 477.435L557.5 429.5L548.25 429.212L539 428.925V477.355ZM575.528 429.954C575.181 430.517 581.206 441.371 588.917 454.076L602.939 477.175L589.085 498.936C571.986 525.797 572.416 525.015 574.147 526.112C576.532 527.624 592.677 527.18 594.299 525.558C595.092 524.765 600.137 517.329 605.51 509.035C614.084 495.799 615.427 494.171 616.487 495.727C617.151 496.702 621.214 503.35 625.517 510.5C629.819 517.65 634.007 524.288 634.824 525.25C636.018 526.656 637.936 527 644.573 527C653.054 527 656 526.457 656 524.894C656 524.404 649.451 513.395 641.446 500.43L626.893 476.858L629.62 472.179C631.121 469.606 637.445 459.275 643.674 449.223C649.903 439.17 655 430.508 655 429.973C655 429.402 650.471 429 644.031 429H633.063L625.781 441.456C621.777 448.307 617.686 455.365 616.691 457.141L614.882 460.368L605.687 444.934L596.492 429.5L586.326 429.216C580.165 429.044 575.911 429.335 575.528 429.954Z" fill="white"/>
</svg>
